<svg xmlns="http://www.w3.org/2000/svg" viewBox="0 0 376 450.4">
  <defs>
    <clipPath id="loading">
      <rect x="0" y="0" width="376" height="450">
        <animateTransform id="fill"
                          attributeName="transform" type="translate"
                          from="0 450" to="0 0"
                          begin="0s; empty.end" dur="2s"
                        />
        <animateTransform id="empty"
                          attributeName="transform" type="translate"
                          from="0 0" to="0 450"
                          begin="fill.end + 0.5s" dur="1.5s"
                        />
      </rect>
    </clipPath>
    <style>
      .outer{fill:#eee}
      .inner{fill:#0071bc}
    </style>
  </defs>
  <g>
    <path class="outer" d="M188.1.5h1.6l7.1,3.6c4.7,2.4,7.8,4,9.4,4.7s6.7,3.2,15.5,7.2,13.4,6.1,13.7,6.2,2.6,1,7,2.9,7.8,3.3,10.1,4.2,5.8,2.1,10.2,3.7,7.3,2.6,8.5,3,2.7.9,4.4,1.5,4,1.3,6.8,2.1,6.3,1.8,10.6,3,8.5,2.2,12.5,3.1,6.7,1.5,7.8,1.7,4.9.9,11.3,2.1,10.3,1.9,11.9,2.1,5.5.9,11.8,1.9,9.4,1.5,9.5,1.5,3.1.6,9.1,1.7l9,1.8h.1l-.4,18.4c-.3,12.3-.9,28.2-1.9,47.6s-1.8,33.1-2.4,40.8-1.3,14.4-2,19.9-1.6,10.8-2.7,15.7-2.1,9.9-3.3,15-2.2,9.4-3.2,13.2-2,7.9-3.3,12.2-2,7-2.3,7.9-.6,2.1-1.1,3.5-1.1,3.1-1.8,5.2-1.7,5-3.2,8.9-2.6,7-3.5,9.3-2.1,5.1-3.4,8.3-3.1,7.1-5.2,11.6-3.4,7.2-3.8,7.9-2,3.4-4.6,8.1-4.3,7.4-4.8,8.3-1.9,3.1-3.9,6.6-3.4,5.7-4,6.7-1.6,2.4-2.9,4.5-2.4,3.6-3.2,4.7-1.7,2.4-2.8,4-2.1,2.9-3,4.2-1.7,2.4-2.3,3.2a21.91,21.91,0,0,1-2.4,3.3c-1.1,1.4-2.1,2.7-3,4.1s-2,2.8-3.2,4.2-2.1,2.7-2.9,3.7-2.5,3-5.1,5.9-5.7,6.2-9.2,9.9-6.7,6.9-9.4,9.5-4.5,4.3-5.4,5-2.9,2.5-6.2,5.3-5.2,4.6-5.9,5.2-2.5,2.1-5.3,4.6-4.7,4-5.6,4.7-1.9,1.5-3,2.5-2.7,2.2-4.7,3.9-3.6,2.9-4.6,3.6-2.1,1.5-3,2.1-2.7,1.7-5.3,3.2-4.3,2.6-5.1,3.1-1.7,1.1-2.7,1.7-2.1,1.2-3.2,2-1.9,1.3-2.4,1.6-1.6.9-3.3,1.7-3.7,1.8-6.1,2.8-4,1.8-4.9,2.1l-1.4.5-1.5-.4a19.21,19.21,0,0,1-3.3-1.2c-1.2-.6-3.2-1.6-5.9-3a49.12,49.12,0,0,1-4.8-2.6c-.4-.3-1.5-1.1-3.2-2.2s-3-1.9-3.9-2.5-2.6-1.6-5.2-3.1-4.3-2.6-5.3-3.2a27.3,27.3,0,0,1-3-2.1c-1-.8-2.3-1.7-3.6-2.8s-3.1-2.5-5.4-4.4-4.2-3.5-5.8-4.8-4-3.4-7.2-6.2-5.2-4.5-6.1-5.2-2.8-2.4-5.8-4.9-4.7-4.1-5-4.4-1.8-1.8-4.5-4.4-4.5-4.5-5.6-5.6-3.4-3.6-7-7.4-5.7-6.2-6.4-7.1-1.8-2.1-3.2-3.8-2.5-3.1-3.3-4.1-1.6-2.1-2.4-3.2-1.6-2.3-2.5-3.5-1.7-2.3-2.4-3.2-1.3-1.8-1.8-2.5-1.2-1.7-2.1-2.9-1.6-2.3-2.3-3.2-1.5-2.2-2.5-3.7a36.75,36.75,0,0,1-2.4-3.6c-.5-.9-1.4-2.2-2.7-4.1s-2-3.1-2.4-3.8-1.4-2.5-3.2-5.3-2.9-4.7-3.4-5.6-1.9-3.2-4.1-7.1-3.8-6.8-4.9-8.8-2.1-3.8-2.9-5.6-2-4.3-3.5-7.8-2.3-5.2-2.3-5.3-.8-2-2.3-5.7-2.7-6.6-3.5-8.8-2-5.4-3.5-9.8-3-9-4.6-14-3.2-11-5.1-18.1S12.7,217,12,213.6s-1.8-8.5-3.2-15.1-2.1-10.9-2.4-13-.8-8.4-1.6-18.9-1.4-18.5-1.6-23.9-.5-11.1-.9-17.1S1.5,109.7.9,96,0,72.6,0,66.9V58.4L.8,58a22.91,22.91,0,0,1,4.5-1.1c2.4-.4,5.8-.9,10.1-1.6S26.2,53.6,35,52.1s15-2.6,18.8-3.2,8.8-1.7,15-3.1,11.6-2.7,16.2-4,8.5-2.4,11.8-3.5,5.9-1.9,7.7-2.5,3.6-1.2,5.3-1.7,5.1-1.8,10.1-3.7,9.8-3.8,14.2-5.8,6.8-2.9,7.1-3,2.4-1,6.4-2.8,7.5-3.5,10.7-4.9,6.4-3,9.5-4.5,7-3.4,11.6-5.8l7-3.6,1.7.5Z"/>
  </g>
  <g clip-path="url(#loading)">
    <path class="inner" d="M188.1,10.3h1.6l6.8,3.4q6.75,3.45,9,4.5c1.5.7,6.4,3,14.8,6.9s12.8,5.8,13.1,5.9,2.5,1,6.7,2.8,7.4,3.1,9.7,4,5.5,2,9.8,3.5,7,2.4,8.1,2.8,2.5.9,4.2,1.4,3.9,1.2,6.5,2,6,1.7,10.2,2.8,8.1,2.1,12,2.9,6.4,1.4,7.5,1.6,4.7.9,10.8,2,9.8,1.8,11.4,2,5.3.8,11.2,1.8,9,1.4,9.1,1.4,3,.5,8.7,1.6,8.6,1.7,8.6,1.7l.1.1-.4,17.5c-.2,11.7-.8,26.7-1.8,45.2s-1.7,31.4-2.3,38.7-1.2,13.7-1.9,18.9-1.6,10.2-2.5,14.9-2,9.4-3.1,14.2-2.1,9-3,12.6-1.9,7.5-3.1,11.6-1.9,6.7-2.2,7.5a25.27,25.27,0,0,1-1.1,3.3c-.5,1.3-1,3-1.7,4.9s-1.7,4.8-3,8.5-2.5,6.6-3.4,8.8-2,4.8-3.3,7.9-2.9,6.7-5,11-3.2,6.8-3.6,7.5-1.9,3.3-4.4,7.7-4.1,7-4.6,7.9-1.8,2.9-3.7,6.2-3.3,5.4-3.9,6.3-1.5,2.3-2.8,4.2-2.3,3.4-3,4.5-1.7,2.3-2.7,3.8-2,2.8-2.9,4a31.32,31.32,0,0,0-2.2,3.1c-.5.8-1.3,1.9-2.3,3.2s-2,2.6-2.9,3.9-1.9,2.6-3,4-2,2.5-2.8,3.5-2.4,2.8-4.9,5.6-5.4,5.9-8.8,9.4-6.4,6.5-9,9-4.3,4.1-5.1,4.8-2.8,2.3-5.9,5-5,4.3-5.7,4.9-2.4,2-5.1,4.3-4.5,3.8-5.3,4.5-1.8,1.4-2.9,2.3-2.6,2.1-4.5,3.7-3.4,2.7-4.4,3.5-2,1.4-2.9,2-2.6,1.6-5.1,3.1-4.1,2.4-4.8,2.9-1.6,1-2.6,1.6a24.9,24.9,0,0,0-3,1.9c-1,.7-1.8,1.2-2.3,1.5a25.55,25.55,0,0,1-3.1,1.6c-1.6.8-3.5,1.7-5.8,2.7s-3.8,1.7-4.7,2l-1.3.5-1.5-.4a11,11,0,0,1-3.1-1.2c-1.1-.5-3-1.5-5.7-2.8a36.32,36.32,0,0,1-4.6-2.5c-.4-.3-1.4-1-3.1-2.1s-2.9-1.8-3.8-2.3-2.5-1.5-5-2.9-4.2-2.5-5.1-3.1-1.9-1.3-2.9-2-2.2-1.6-3.4-2.6-3-2.4-5.1-4.2-4-3.3-5.6-4.6-3.9-3.2-6.9-5.9-5-4.3-5.8-4.9-2.7-2.2-5.6-4.7-4.5-3.9-4.8-4.2-1.8-1.7-4.3-4.2-4.3-4.2-5.3-5.3-3.2-3.4-6.7-7-5.5-5.9-6.2-6.7-1.7-2-3-3.6-2.4-2.9-3.1-3.9-1.5-2-2.3-3.1L82.9,350c-.8-1.1-1.6-2.2-2.3-3.1s-1.3-1.7-1.8-2.4-1.1-1.6-2-2.8-1.6-2.2-2.2-3.1-1.4-2.1-2.4-3.5-1.8-2.6-2.3-3.4-1.4-2.1-2.5-3.9-1.9-3-2.3-3.6-1.4-2.3-3-5-2.7-4.5-3.3-5.3-1.8-3.1-3.9-6.7-3.7-6.5-4.7-8.3-2-3.6-2.8-5.3-1.9-4.1-3.4-7.4-2.2-5-2.2-5-.7-1.9-2.2-5.4-2.6-6.3-3.4-8.3-1.9-5.1-3.4-9.3-2.9-8.6-4.4-13.3-3.1-10.4-4.8-17.1-3-11.7-3.7-15-1.7-8.1-3-14.3-2.1-10.4-2.3-12.3-.8-7.9-1.6-18-1.3-17.6-1.6-22.7-.5-10.5-.8-16.2-.8-15.1-1.3-28.1S8.5,79,8.5,73.6V65.5l.8-.4a19.1,19.1,0,0,1,4.3-1c2.3-.4,5.6-.9,9.7-1.5S33.7,61,42,59.5s14.4-2.4,18-3.1,8.4-1.6,14.4-2.9,11.1-2.6,15.5-3.8,8.1-2.3,11.2-3.3,5.6-1.8,7.4-2.3,3.5-1.1,5.1-1.6,4.8-1.7,9.7-3.5,9.4-3.6,13.6-5.5,6.5-2.8,6.8-2.8a61.8,61.8,0,0,0,6.1-2.6c3.8-1.7,7.2-3.3,10.3-4.7s6.1-2.8,9.1-4.2,6.7-3.2,11.1-5.5l6.7-3.4Z"/>
  </g>
</svg>
