<svg xmlns="http://www.w3.org/2000/svg" viewBox="0 0 17 17"><defs><style>.ok{fill:#8CC63F}.fail{fill:#FF6161}</style></defs><g><rect class="slack" x="7.51" y="7.51" width="1.97" height="1.93" transform="translate(-2.26 3.15) rotate(-18.6)"/><path class="slack" d="M8.5,0A8.5,8.5,0,1,0,17,8.5,8.5,8.5,0,0,0,8.5,0Zm4.31,9.85-.91.31.31.93a.86.86,0,1,1-1.62.55l-.31-.93-1.87.63.32.94a.86.86,0,1,1-1.62.55l-.32-.94-.87.29a.86.86,0,1,1-.55-1.62l.87-.29L5.62,8.42l-.89.3a.86.86,0,0,1-.55-1.62l.89-.3-.29-.88a.86.86,0,0,1,1.62-.55l.29.88,1.87-.63-.3-.89A.86.86,0,1,1,9.9,4.19l.3.89.89-.3a.86.86,0,0,1,.55,1.62l-.89.3.62,1.83.91-.31a.86.86,0,0,1,.55,1.62Z"/></g></svg>
