<svg xmlns="http://www.w3.org/2000/svg" viewBox="0 0 17 17"><defs><style>.ok{fill:#8CC63F}.fail{fill:#FF6161}</style></defs><g><circle class="twitter" cx="8.5" cy="8.5" r="8.5"/><path class="cls-2" d="M14.3,4.84A4.71,4.71,0,0,1,13,5.21a2.36,2.36,0,0,0,1-1.3,4.71,4.71,0,0,1-1.5.57,2.36,2.36,0,0,0-4,2.15A6.68,6.68,0,0,1,3.63,4.16a2.36,2.36,0,0,0,.73,3.14A2.34,2.34,0,0,1,3.29,7V7A2.36,2.36,0,0,0,5.18,9.35a2.36,2.36,0,0,1-1.06,0A2.36,2.36,0,0,0,6.31,11a4.72,4.72,0,0,1-2.92,1,4.79,4.79,0,0,1-.56,0A6.7,6.7,0,0,0,13.14,6.36q0-.15,0-.3A4.79,4.79,0,0,0,14.3,4.84Z"/></g></svg>
