<svg xmlns="http://www.w3.org/2000/svg" viewBox="0 0 23.71 23.71"><defs><style>.cls-1{fill:#757575;}</style></defs><title>cloud-fail</title><g id="Layer_2" data-name="Layer 2"><g id="Icons"><path class="cls-1" d="M13,0A7,7,0,0,0,7,3.36,7.72,7.72,0,0,1,10,6l-.82.58C7.68,4.45,6.39,4,5,4A5,5,0,0,0,5,14h8A7,7,0,0,0,13,0Z"/><polygon class="cls-1" points="23.71 17.71 22.29 16.29 20 18.59 17.71 16.29 16.29 17.71 18.59 20 16.29 22.29 17.71 23.71 20 21.41 22.29 23.71 23.71 22.29 21.41 20 23.71 17.71"/></g></g></svg>