<svg xmlns="http://www.w3.org/2000/svg" viewBox="0 0 17.43 17"><defs><style>.cls-1{fill:#181616;fill-rule:evenodd;}</style></defs><title>github</title><g id="Layer_2" data-name="Layer 2"><g id="Layer_1-2" data-name="Layer 1"><path class="cls-1" d="M8.71,0A8.72,8.72,0,0,0,6,17c.44.08.59-.19.59-.42s0-.75,0-1.48c-2.42.53-2.94-1.17-2.94-1.17a2.31,2.31,0,0,0-1-1.27c-.79-.54.06-.53.06-.53A1.83,1.83,0,0,1,4,13a1.86,1.86,0,0,0,2.54.72,1.86,1.86,0,0,1,.55-1.17c-1.94-.22-4-1-4-4.31a3.37,3.37,0,0,1,.9-2.34,3.13,3.13,0,0,1,.09-2.31s.73-.23,2.4.89a8.26,8.26,0,0,1,4.36,0c1.66-1.13,2.39-.89,2.39-.89a3.13,3.13,0,0,1,.09,2.31,3.36,3.36,0,0,1,.9,2.34c0,3.35-2,4.08-4,4.3a2.08,2.08,0,0,1,.59,1.61c0,1.17,0,2.11,0,2.39s.16.5.6.42A8.72,8.72,0,0,0,8.71,0Z"/></g></g></svg>