<svg xmlns="http://www.w3.org/2000/svg" viewBox="0 0 23.71 23.71"><defs><style>.cls-1{fill:#757575;}</style></defs><title>api-fail</title><g id="Layer_2" data-name="Layer 2"><g id="Icons"><path class="cls-1" d="M0,13H20V7H0ZM16,9a1,1,0,1,1-1,1A1,1,0,0,1,16,9ZM13,9a1,1,0,1,1-1,1A1,1,0,0,1,13,9ZM8,9v2H3V9Z"/><path class="cls-1" d="M20,6V2a2,2,0,0,0-2-2H2A2,2,0,0,0,0,2V6ZM16,2a1,1,0,1,1-1,1A1,1,0,0,1,16,2ZM13,2a1,1,0,1,1-1,1A1,1,0,0,1,13,2ZM3,2H8V4H3Z"/><path class="cls-1" d="M20,14H0v4a2,2,0,0,0,2,2H14A6,6,0,0,1,20,14ZM8,18H3V16H8Zm5,0a1,1,0,1,1,1-1A1,1,0,0,1,13,18Z"/><polygon class="cls-1" points="23.71 17.71 22.29 16.29 20 18.59 17.71 16.29 16.29 17.71 18.59 20 16.29 22.29 17.71 23.71 20 21.41 22.29 23.71 23.71 22.29 21.41 20 23.71 17.71"/></g></g></svg>